Genre:Drama | Mystery | Sci-Fi | Thriller
Language:English
IMDb:http://www.imdb.com/title/tt1375666/
Source:TA.Thanks 
Encoder: Tony2
............................................
General
Complete name : Inception 2010 CAM XviD.FEEL-FREE
Format : AVI
Format/Info : Audio Video Interleave
Format profile : OpenDML
File size : 1.23 GiB
.............................................
Video
Format : xvid
Codec ID : xvid
Bit rate : 502 Kbps
Width : 644 pixels
Height : 302 pixels
Display aspect ratio : 2.2:1
Frame rate : 29.970 fps
Resolution : 24 bits
Bits/(Pixel*Frame) : 0.086
Stream size : 1.09 GiB (89%)
.............................................
Audio
ID : 1
Format : MPEG Audio
Format version : Version 1
Format profile : Layer 3
Format settings, Mode : Joint stereo / MS Stereo
Codec ID : 55
Codec ID/Hint : MP3
Duration : 2h 10mn
Bit rate mode : Constant
Bit rate : 128 Kbps
Channel(s) : 2 channels
Sampling rate : 48.0 KHz
Resolution : 16 bits
Stream size : 120 MiB (10%)
Alignment : Aligned on interleaves
Interleave, duration : 24 ms (0.72 video frame)
Interleave, preload duration : 24 ms
.............................................
Plot:
In a world where technology exists to enter the human mind through dream invasion, a highly skilled thief is given a final chance at redemption which involves executing his toughest job till date, Inception
...................................................
Screenshots
 
http://postimg.com/image/19000/18235.jpg
 
http://postimg.com/image/19000/18236.jpg
 
http://postimg.com/image/19000/18237.jpg

........................................................